<?xml version="1.0" standalone="no"?>
<!DOCTYPE svg PUBLIC "-//W3C//DTD SVG 20010904//EN"
 "http://www.w3.org/TR/2001/REC-SVG-20010904/DTD/svg10.dtd">
<svg version="1.0" xmlns="http://www.w3.org/2000/svg"
 width="1904.000000pt" height="1458.000000pt" viewBox="0 0 1904.000000 1458.000000"
 preserveAspectRatio="xMidYMid meet">
<metadata>
Created by potrace 1.16, written by Peter Selinger 2001-2019
</metadata>
<g transform="translate(0.000000,1458.000000) scale(0.100000,-0.100000)"
fill="#000000" stroke="none">
<path d="M985 14266 c-322 -83 -551 -308 -642 -626 -17 -63 -18 -211 -18
-4110 0 -3912 1 -4047 19 -4115 41 -155 141 -324 249 -421 116 -104 234 -168
397 -213 l95 -26 5034 -3 c2769 -1 5032 0 5029 3 -3 3 -32 25 -66 48 -33 23
-116 90 -184 148 -67 58 -159 133 -203 166 -132 100 -184 165 -211 268 -20 72
-17 132 13 353 27 195 27 203 28 792 1 642 5 696 60 944 37 162 26 179 -180
277 -294 140 -645 297 -676 303 l-34 6 -1 -218 c0 -180 -4 -239 -23 -347 -29
-163 -75 -345 -141 -550 -70 -221 -92 -333 -93 -480 0 -125 10 -195 45 -305
68 -214 196 -372 492 -608 331 -263 416 -356 416 -452 0 -56 -66 -112 -180
-150 -87 -29 -420 -51 -470 -30 -62 26 -99 69 -150 174 -89 183 -172 273 -437
474 -162 123 -303 246 -475 413 -118 115 -152 177 -152 279 1 74 16 116 75
207 99 152 93 276 -26 573 -155 385 -397 737 -825 1197 -182 195 -194 203
-268 184 -22 -6 -382 -229 -803 -498 -969 -617 -1062 -674 -1414 -878 -427
-246 -494 -292 -735 -500 -116 -100 -220 -178 -292 -219 -119 -69 -196 -173
-223 -303 -8 -39 -15 -124 -15 -198 0 -112 3 -134 20 -163 28 -46 69 -67 165
-86 160 -32 298 -90 330 -140 30 -46 35 -86 20 -158 -42 -201 -116 -269 -470
-424 -172 -75 -238 -69 -368 34 -21 17 -84 54 -140 83 -128 65 -212 123 -236
163 -20 32 -61 216 -83 371 -7 50 -12 173 -12 275 1 271 29 403 147 697 36 87
94 249 131 360 37 111 77 217 89 235 40 59 88 77 248 93 158 16 217 30 283 69
69 40 101 86 192 274 106 219 142 302 359 827 400 970 585 1346 882 1791 88
132 103 160 75 145 -60 -33 -350 -294 -674 -607 -846 -818 -1423 -1518 -1907
-2318 -246 -406 -433 -649 -687 -896 -296 -288 -437 -361 -699 -363 -134 -1
-207 11 -342 54 -197 63 -226 102 -344 449 -40 120 -42 131 -46 271 l-4 147
50 85 c122 206 283 386 389 435 144 66 247 -21 273 -230 12 -99 -1 -225 -36
-348 -13 -47 -33 -137 -45 -200 -26 -145 -47 -241 -60 -275 -10 -27 -10 -27
27 -20 120 22 136 29 294 131 341 221 379 262 724 785 345 522 627 901 1014
1364 557 665 1282 1388 1973 1966 360 302 700 495 1124 638 443 149 969 231
1479 231 382 0 677 -28 1489 -140 926 -129 1104 -145 1631 -145 384 0 418 2
540 23 291 52 431 118 729 344 137 105 397 276 631 418 226 137 224 135 429
314 277 242 363 302 476 331 102 26 172 51 349 126 172 73 285 110 392 129 35
6 74 13 87 16 l24 5 -4 297 c-5 316 -8 339 -62 474 -42 103 -89 171 -186 269
-133 134 -266 207 -442 243 -70 15 -693 16 -6610 16 l-6533 -1 -90 -23z"/>
<path d="M15520 13130 c-81 -15 -560 -124 -597 -135 -10 -4 -13 -648 -13
-3180 0 -1746 -4 -3175 -8 -3175 -5 0 -19 12 -33 26 -13 15 -98 94 -189 177
-91 83 -180 164 -198 181 l-33 31 -162 5 c-137 5 -169 9 -209 27 -67 31 -127
90 -229 228 l-90 122 -117 -18 c-193 -30 -291 -37 -382 -28 -47 5 -209 13
-360 18 -152 6 -353 19 -450 31 -275 33 -323 35 -352 16 -28 -18 -32 -27 -297
-513 -259 -475 -341 -642 -386 -775 -32 -97 -38 -129 -43 -229 -4 -90 -1 -128
13 -175 27 -96 71 -167 148 -241 222 -211 253 -247 301 -344 75 -151 67 -223
-33 -274 -108 -54 -330 -131 -416 -144 -36 -5 500 -8 1355 -7 l1415 1 96 27
c338 93 575 340 643 671 13 64 16 164 16 622 l0 546 28 -21 c70 -55 250 -225
640 -604 794 -772 944 -916 1011 -966 95 -73 215 -129 313 -147 46 -8 153 -30
238 -48 205 -44 235 -47 300 -35 120 22 231 105 284 211 51 102 29 230 -61
362 -78 115 -166 166 -261 152 -24 -4 -83 -19 -130 -35 -157 -51 -219 -49
-300 10 -62 44 -216 260 -362 506 -79 133 -365 697 -606 1199 -190 395 -187
382 -103 492 155 203 237 402 280 676 15 102 30 155 72 260 l53 132 55 7 c29
3 122 6 204 7 170 1 229 13 332 65 125 63 308 206 519 409 131 124 145 161 98
256 -31 61 -29 109 6 203 38 102 85 154 151 164 29 5 65 -5 177 -50 319 -128
522 -140 615 -37 59 66 70 132 56 347 -4 70 -4 71 43 141 84 126 248 480 248
532 -2 111 -235 284 -657 487 -227 110 -294 154 -418 280 -49 50 -115 109
-145 131 -80 59 -285 177 -396 229 l-96 45 8 97 c29 345 -41 643 -189 800 -95
101 -129 114 -489 191 -215 46 -253 51 -483 65 -298 19 -304 19 -425 -4z"/>
<path d="M227 3373 c-24 -33 -25 -39 -13 -67 7 -17 41 -104 76 -193 l63 -163
42 0 c35 0 45 5 64 31 18 25 22 39 17 69 -5 29 -2 39 10 44 9 3 184 6 390 6
l374 0 0 -1272 c0 -816 -4 -1286 -10 -1309 -13 -45 -42 -59 -137 -66 l-73 -6
0 -45 c0 -36 6 -52 27 -74 l27 -28 396 0 396 0 27 28 c34 36 34 62 0 94 -21
19 -43 27 -88 31 -65 7 -79 17 -95 77 -6 22 -10 501 -10 1303 l0 1267 383 -2
382 -3 0 -42 c0 -27 8 -52 23 -72 19 -26 29 -31 65 -31 l42 0 74 192 75 191
-21 36 c-18 32 -26 36 -66 39 -44 3 -45 2 -57 -33 -6 -19 -21 -41 -33 -48 -17
-9 -259 -12 -1098 -12 -1062 0 -1077 0 -1099 20 -12 11 -28 32 -36 47 -12 23
-21 28 -53 28 -32 0 -42 -5 -64 -37z"/>
<path d="M15100 3354 c-435 -37 -761 -166 -1043 -411 -273 -239 -467 -609
-518 -990 -19 -143 -6 -434 24 -563 101 -424 359 -769 702 -939 162 -81 318
-127 561 -167 130 -21 641 -31 792 -15 94 10 593 104 693 131 33 9 47 25 144
174 l106 165 -12 42 c-10 33 -20 45 -47 56 l-34 14 -54 -55 c-266 -272 -914
-416 -1380 -306 -173 41 -337 115 -469 212 -103 75 -271 250 -338 351 -116
172 -214 411 -273 663 -26 108 -28 136 -28 304 0 169 2 194 27 285 85 314 316
587 620 730 298 141 695 164 1015 59 176 -57 313 -139 478 -283 99 -86 121
-90 160 -31 l27 40 -58 165 c-37 108 -64 169 -76 175 -42 23 -263 101 -365
129 -61 17 -155 38 -210 46 -100 15 -361 26 -444 19z"/>
<path d="M7637 2423 c-3 -4 -170 -424 -372 -933 -202 -509 -381 -952 -399
-985 -28 -53 -36 -62 -77 -75 -79 -26 -99 -58 -61 -93 16 -14 43 -17 174 -17
137 0 157 2 171 18 10 10 17 25 17 34 0 17 -31 48 -48 48 -7 0 -12 6 -12 13 0
6 71 190 158 407 l158 395 264 0 263 0 154 -380 c165 -408 174 -435 151 -435
-19 0 -48 -32 -48 -52 0 -8 8 -22 18 -31 16 -15 49 -17 259 -17 220 0 241 2
256 18 34 38 13 70 -60 91 -28 8 -51 23 -69 47 -16 20 -196 453 -413 992
l-386 957 -47 3 c-25 2 -48 -1 -51 -5z m73 -789 c55 -136 100 -252 100 -256 0
-4 -93 -8 -206 -8 -113 0 -204 4 -202 9 88 229 202 510 205 507 2 -2 49 -115
103 -252z"/>
<path d="M17755 2424 c-245 -29 -405 -88 -570 -212 -277 -206 -452 -542 -472
-903 -15 -283 68 -519 254 -720 119 -128 287 -228 453 -270 107 -26 338 -36
463 -20 434 58 774 343 917 769 43 129 60 244 60 409 0 283 -68 467 -239 646
-167 175 -359 268 -611 297 -81 9 -191 11 -255 4z m130 -219 c168 -49 330
-142 458 -264 136 -130 231 -281 277 -441 31 -106 38 -301 16 -402 -74 -331
-391 -598 -731 -616 -240 -12 -440 73 -636 268 -200 201 -304 430 -316 701 -7
155 10 246 70 369 34 71 57 101 137 180 52 52 121 110 152 129 188 110 372
134 573 76z"/>
<path d="M2887 2382 c-36 -39 -7 -92 49 -92 16 0 35 -4 43 -9 26 -17 32 -199
29 -1008 -3 -791 -4 -815 -22 -829 -11 -7 -41 -17 -68 -20 -46 -6 -48 -8 -48
-39 0 -69 -40 -65 727 -65 656 0 691 1 706 18 14 15 17 42 17 159 0 133 -1
141 -23 161 -28 27 -74 29 -80 5 -3 -10 -8 -36 -12 -58 -9 -53 -30 -91 -62
-112 -25 -16 -60 -18 -373 -18 -385 0 -394 1 -426 63 -17 34 -19 67 -22 400
l-3 362 284 0 c349 0 376 -3 389 -42 8 -23 16 -28 42 -28 55 0 66 22 66 137 0
114 -10 133 -73 133 -32 0 -36 -3 -39 -27 -3 -25 -8 -29 -53 -35 -27 -3 -177
-7 -332 -7 l-283 -1 0 410 0 410 313 -1 c322 0 403 -6 418 -30 5 -8 21 -51 35
-96 26 -81 27 -83 59 -83 58 0 65 19 65 177 0 133 -1 141 -23 161 l-23 22
-631 0 c-598 0 -631 -1 -646 -18z"/>
<path d="M4437 2382 c-40 -44 -7 -92 64 -92 55 0 67 -8 79 -51 14 -48 13
-1712 -1 -1762 -11 -42 -37 -57 -93 -57 -56 0 -85 -50 -48 -83 16 -15 53 -17
309 -17 268 0 291 1 306 18 35 39 5 82 -56 82 -23 0 -45 8 -64 24 l-28 24 -4
387 c-2 254 0 386 7 384 5 -2 248 -186 540 -408 l531 -404 -25 -19 c-29 -23
-31 -49 -6 -71 17 -15 57 -17 364 -17 321 0 346 1 361 18 37 41 11 74 -72 91
-140 30 -207 75 -981 664 -245 187 -449 342 -453 346 -8 8 970 743 1046 787
60 34 161 64 218 64 49 0 49 0 49 33 0 22 -8 41 -23 55 -22 21 -31 22 -238 22
-212 0 -216 0 -237 -23 -27 -29 -27 -35 0 -64 13 -14 18 -27 12 -32 -5 -5
-253 -191 -551 -415 l-543 -406 0 337 c0 360 8 459 36 480 10 7 37 13 59 13
66 0 99 55 57 93 -16 15 -53 17 -309 17 -268 0 -291 -1 -306 -18z"/>
<path d="M8727 2382 c-39 -43 -7 -92 61 -92 60 0 118 -26 142 -64 11 -18 27
-64 37 -102 17 -63 18 -135 18 -854 0 -589 -3 -792 -12 -812 -10 -22 -21 -28
-60 -34 -76 -10 -105 -51 -65 -87 16 -15 47 -17 219 -17 181 0 201 2 216 18
10 10 17 32 17 49 0 30 -2 31 -51 38 -97 13 -89 -55 -89 767 l0 723 54 -55
c29 -30 336 -356 681 -725 345 -369 664 -707 707 -752 l79 -82 34 15 35 14 0
939 c0 668 3 947 11 970 13 37 41 51 100 51 39 0 39 0 39 38 0 69 -10 72 -232
72 -176 0 -196 -2 -211 -18 -35 -38 -8 -92 45 -92 14 0 36 -9 49 -19 l24 -19
3 -494 c1 -271 1 -580 0 -687 l-3 -194 -715 762 -715 761 -201 0 c-182 0 -202
-2 -217 -18z"/>
<path d="M11117 2382 c-35 -38 -8 -92 46 -92 55 0 64 -24 72 -181 12 -240 0
-1588 -14 -1631 -12 -39 -35 -58 -69 -58 -22 0 -52 -30 -52 -52 0 -8 8 -22 18
-31 17 -15 72 -17 589 -17 340 0 613 4 678 11 267 27 434 106 611 291 226 236
333 517 321 843 -6 167 -28 259 -92 390 -132 269 -363 438 -692 504 -156 32
-353 41 -894 41 -477 0 -507 -1 -522 -18z m1043 -140 c323 -58 552 -197 709
-431 214 -317 195 -721 -51 -1053 -161 -217 -416 -308 -828 -295 -299 9 -399
55 -429 198 -7 33 -11 312 -11 831 l0 780 248 -5 c189 -3 274 -9 362 -25z"/>
</g>
</svg>
